<svg width="202" height="50" viewBox="0 0 202 50" fill="none" xmlns="http://www.w3.org/2000/svg">
<path d="M22.7793 49.1494C22.8556 48.8154 22.9336 48.4609 23.0176 48.1077C23.5578 45.8387 24.0063 43.5427 24.6626 41.3079C25.5872 38.1592 26.9724 35.2516 29.3283 32.8466C31.4754 30.6549 33.8322 28.7459 36.5615 27.3951C42.4354 24.4879 48.3002 21.5424 54.3022 18.9183C68.1128 12.8805 82.2424 7.63535 96.3608 2.37028C97.9532 1.77644 99.5459 1.18346 101.139 0.590088C100.508 0.618273 99.9167 0.772591 99.3273 0.934676C82.9621 5.43547 66.603 9.95836 50.2284 14.4247C45.7051 15.6585 41.1557 16.8115 36.582 17.8406C32.7003 18.714 29.8868 17.0317 28.6375 13.2568C28.2667 12.1364 28.043 10.9397 27.9493 9.76224C27.8329 8.2999 27.9214 6.82124 27.9214 5.34964C27.7536 5.57348 27.7005 5.81092 27.6234 6.04036C26.4306 9.59096 25.3354 13.1787 24.009 16.6786C22.8726 19.6771 21.2043 22.3671 18.6228 24.4218C14.2599 27.8942 9.41379 30.5709 4.51494 33.1677C3.02296 33.9586 1.50568 34.7017 0 35.4667C2.03951 34.9049 4.03725 34.2447 6.06691 33.7045C9.09998 32.8974 12.1709 32.3536 15.3415 32.5742C17.8993 32.7521 19.7966 33.8801 20.8593 36.2408C21.2956 37.21 21.6807 38.2193 21.9406 39.2479C22.7632 42.5036 22.9052 45.8275 22.7793 49.1494Z" fill="black"/>
<path d="M22.7792 49.1495C22.9051 45.8275 22.7632 42.5036 21.9406 39.2479C21.6807 38.2193 21.2956 37.21 20.8593 36.2408C19.7965 33.8801 17.8993 32.7521 15.3415 32.5742C12.1709 32.3536 9.09998 32.8974 6.06691 33.7045C4.03725 34.2447 2.03951 34.9049 0 35.4667C1.5057 34.7017 3.02295 33.9586 4.51493 33.1677C9.41378 30.5709 14.2599 27.8942 18.6228 24.4218C21.2043 22.3672 22.8726 19.6771 24.0089 16.6786C25.3354 13.1787 26.4306 9.59096 27.6234 6.04036C27.7004 5.81095 27.7536 5.57348 27.9214 5.34963C27.9214 6.82124 27.8329 8.29991 27.9493 9.76223C28.043 10.9397 28.2667 12.1364 28.6375 13.2568C29.8868 17.0317 32.7003 18.714 36.582 17.8406C41.1557 16.8115 45.7051 15.6585 50.2284 14.4247C66.603 9.95836 82.9621 5.43547 99.3273 0.934676C99.9167 0.772591 100.508 0.618273 101.139 0.590088C99.5459 1.18346 97.9532 1.77644 96.3608 2.37028C82.2423 7.63535 68.1128 12.8805 54.3022 18.9183C48.3002 21.5424 42.4354 24.4879 36.5615 27.395C33.8321 28.7459 31.4754 30.6549 29.3283 32.8466C26.9724 35.2515 25.5872 38.1592 24.6626 41.3079C24.0062 43.5427 23.5578 45.8388 23.0176 48.1078C22.9335 48.4609 22.8555 48.8154 22.7792 49.1495Z" fill="black"/>
<path d="M114.254 15.9759C108.744 15.9759 106.036 19.2468 105.709 20.4613C104.448 17.3309 102.206 15.9759 98.657 15.9759C92.8664 15.9759 91.4188 19.7138 91.0918 20.4613V16.4432H84.274V39.8049H91.0918V27.2832C91.0918 24.2461 92.5862 22.2371 95.4817 22.2371C98.1435 22.2371 99.6377 23.8724 99.6377 27.3765V39.8049H106.456V27.2832C106.456 24.2461 108.09 22.2371 111.032 22.2371C113.647 22.2371 115.422 23.8724 115.422 27.3765V39.8049H122.24V25.4141C122.24 18.7327 119.298 15.9759 114.254 15.9759ZM163.241 15.9759C159.785 15.9759 155.582 17.0506 153.107 18.4056L154.695 23.8257C156.142 23.1249 160.532 22.3305 163.708 22.4706C166.089 22.6107 167.911 23.265 168.004 24.7133L168.051 25.0869L158.757 25.9282C154.134 26.3018 151.613 29.9932 151.893 33.591C152.126 37.1886 155.348 40.2722 159.645 40.2722C163.614 40.2722 166.136 38.637 168.097 36.8616V39.805H174.915V25.4609C174.915 18.8729 170.665 15.9759 163.241 15.9759ZM168.097 30.5538C167.957 31.7686 164.875 34.7121 161.233 34.7121C159.271 34.7121 158.244 33.7776 158.244 32.7032C158.244 31.6749 159.178 30.8341 161.606 30.5069L168.097 29.6193V30.5538ZM195.182 19.1064C194.201 17.1908 191.82 15.9759 188.925 15.9759C182.853 15.9759 177.95 21.3959 177.95 28.1241C177.95 34.8055 182.853 40.2722 188.925 40.2722C191.82 40.2722 194.201 39.0105 195.182 37.1418V39.805H202V7.09869H195.182V19.1064ZM190.139 33.4505C186.87 33.4505 184.768 31.1145 184.768 28.1241C184.768 24.9003 186.87 22.3773 190.139 22.3773C192.847 22.3773 195.182 24.3394 195.182 28.1241C195.182 31.6285 192.847 33.4505 190.139 33.4505ZM139.191 15.9759C136.295 15.9759 133.914 17.1908 132.98 19.1064V16.4432H126.115V49.1498H132.98V37.095C133.914 39.0105 136.295 40.2722 139.191 40.2722C145.262 40.2722 150.212 34.8055 150.212 28.1241C150.212 21.3959 145.262 15.9759 139.191 15.9759ZM137.977 33.8712C135.268 33.8712 132.98 31.9088 132.98 28.1241C132.98 24.62 135.268 22.7977 137.977 22.7977C141.246 22.7977 143.347 25.1337 143.347 28.1241C143.347 31.3482 141.246 33.8712 137.977 33.8712ZM47.2428 36.6277C47.2428 40.9262 46.262 42.702 41.7324 42.9822V49.1498C51.0252 49.1498 54.0607 46.8603 54.0607 38.6369V20.934L47.2428 23.7073V36.6277ZM73.5804 28.965C73.5804 31.4883 72.7864 34.0114 69.3775 34.0114C66.2019 34.0114 65.2213 31.9088 65.2213 28.6382V16.4432C64.752 16.6388 64.126 16.8717 63.4359 17.1205L58.3564 19.1867V30.8341C58.3564 37.5155 62.7929 40.2722 67.0424 40.2722C71.5255 40.319 73.3936 37.1886 73.5805 36.6277V39.8049H80.3984V16.4432H73.5805L73.5804 28.965Z" fill="black"/>
</svg>
